<svg width="23" height="25" viewBox="0 0 23 25" fill="none" xmlns="http://www.w3.org/2000/svg">
<path d="M11 18L4.5 17L1 2M11 18L17 12M11 18C10.6667 18.3333 9.7 19.7 10.5 20.5C11.3 21.3 12.8333 22.3333 13.5 23C13.8333 23.5 14.8 23.7 16 22.5C17.2 21.3 19.6667 18.3333 21.5 16.5C22 15.5 22 15 21 14C19.4 12.4 19.1667 12.1667 19 12C18.8333 11.8333 18 11.5 17 12M1 2L15.5 5.5L17 12M1 2L8 9M8 9C8.66667 8.5 10.4 7.9 12 9.5C13.6 11.1 12.6667 12.8333 12 13.5C11.3333 14 9.7 14.7 8.5 13.5C7 12 6.5 11 8 9Z" stroke="black" stroke-width="1.5"/>
</svg>
