<svg width="20" height="23" viewBox="0 0 20 23" fill="none" xmlns="http://www.w3.org/2000/svg">
<path d="M0 4.5H2.5M20 4.5H17.5M17.5 4.5V19C17.6667 19.8333 17.3 21.5 14.5 21.5C13.7689 21.5 12.9083 21.5 12 21.5M17.5 4.5H14.5M2.5 4.5C2.33333 9.33333 2.1 19.2 2.5 20C2.9 20.8 4.33333 21.3333 5 21.5C5.54368 21.5 6.28689 21.5 7.13721 21.5M2.5 4.5H5.5M5.5 4.5C5.16667 3.33333 5.1 1 7.5 1C9.9 1 12.1667 1 13 1C13.6667 1 14.9 1.7 14.5 4.5M5.5 4.5H7.5M14.5 4.5H12M7.5 4.5L7.13721 21.5M7.5 4.5H12M7.13721 21.5C8.59816 21.5 10.3753 21.5 12 21.5M12 4.5V21.5" stroke="black" stroke-width="1.5"/>
</svg>
