<svg width="69" height="27" viewBox="0 0 69 27" fill="none" xmlns="http://www.w3.org/2000/svg">
<path d="M2.795 7.42C3.19833 7.42 3.51667 7.345 3.75 7.195C3.98667 7.04167 4.105 6.83833 4.105 6.585C4.105 6.425 4.075 6.28667 4.015 6.17C3.95833 6.05333 3.84 5.94833 3.66 5.855C3.48 5.76167 3.20333 5.66833 2.83 5.575C2.46667 5.485 2.15 5.38167 1.88 5.265C1.61333 5.145 1.405 4.99 1.255 4.8C1.10833 4.61 1.035 4.36333 1.035 4.06C1.035 3.76333 1.11833 3.50833 1.285 3.295C1.455 3.07833 1.69 2.91333 1.99 2.8C2.29 2.68333 2.63833 2.625 3.035 2.625C3.45833 2.625 3.82667 2.68167 4.14 2.795C4.45667 2.905 4.725 3.04167 4.945 3.205L4.575 3.775C4.375 3.63833 4.155 3.52667 3.915 3.44C3.675 3.35 3.385 3.305 3.045 3.305C2.63167 3.305 2.33833 3.37 2.165 3.5C1.99167 3.62667 1.905 3.79167 1.905 3.995C1.905 4.14833 1.94667 4.27667 2.03 4.38C2.11667 4.48 2.26167 4.57167 2.465 4.655C2.66833 4.735 2.94833 4.82333 3.305 4.92C3.64833 5.01 3.94667 5.11833 4.2 5.245C4.45667 5.37167 4.65667 5.53833 4.8 5.745C4.94333 5.95167 5.015 6.21833 5.015 6.545C5.015 6.91833 4.90833 7.22167 4.695 7.455C4.48167 7.685 4.205 7.85333 3.865 7.96C3.52833 8.06333 3.17167 8.115 2.795 8.115C2.31833 8.115 1.91167 8.04667 1.575 7.91C1.24167 7.77 0.961667 7.60167 0.735 7.405L1.215 6.85C1.42167 7.02 1.65833 7.15833 1.925 7.265C2.195 7.36833 2.485 7.42 2.795 7.42ZM10.4711 2.625C10.6411 2.625 10.8028 2.66167 10.9561 2.735C11.1128 2.80833 11.2411 2.95 11.3411 3.16C11.4411 3.37 11.4911 3.67667 11.4911 4.08V8H10.7111V4.215C10.7111 3.885 10.6911 3.64667 10.6511 3.5C10.6111 3.35333 10.4961 3.28 10.3061 3.28C10.1494 3.28 9.99276 3.33 9.83609 3.43C9.68276 3.52667 9.53276 3.68667 9.38609 3.91V8H8.60109V4.215C8.60109 3.885 8.58109 3.64667 8.54109 3.5C8.50109 3.35333 8.38609 3.28 8.19609 3.28C8.03276 3.28 7.87443 3.33 7.72109 3.43C7.57109 3.52667 7.42276 3.68667 7.27609 3.91V8H6.50109V2.735H7.16109L7.21109 3.345C7.35443 3.14167 7.51443 2.97167 7.69109 2.835C7.87109 2.695 8.09276 2.625 8.35609 2.625C8.55609 2.625 8.74443 2.67333 8.92109 2.77C9.09776 2.86333 9.22776 3.04667 9.31109 3.32C9.45443 3.11333 9.61609 2.94667 9.79609 2.82C9.97609 2.69 10.2011 2.625 10.4711 2.625ZM16.7672 6.85C16.7672 7.06 16.8022 7.21333 16.8722 7.31C16.9422 7.40667 17.0505 7.47833 17.1972 7.525L16.9922 8.115C16.7655 8.085 16.5672 8.01333 16.3972 7.9C16.2272 7.78333 16.1039 7.60833 16.0272 7.375C15.8372 7.61833 15.6005 7.80333 15.3172 7.93C15.0339 8.05333 14.7205 8.115 14.3772 8.115C13.8505 8.115 13.4355 7.96667 13.1322 7.67C12.8289 7.37333 12.6772 6.98 12.6772 6.49C12.6772 5.94667 12.8889 5.53 13.3122 5.24C13.7355 4.95 14.3472 4.805 15.1472 4.805H15.9222V4.365C15.9222 3.985 15.8105 3.71667 15.5872 3.56C15.3672 3.4 15.0605 3.32 14.6672 3.32C14.4939 3.32 14.2905 3.34167 14.0572 3.385C13.8239 3.425 13.5705 3.49333 13.2972 3.59L13.0772 2.955C13.4005 2.835 13.7039 2.75 13.9872 2.7C14.2705 2.65 14.5405 2.625 14.7972 2.625C15.4539 2.625 15.9455 2.77833 16.2722 3.085C16.6022 3.38833 16.7672 3.80167 16.7672 4.325V6.85ZM14.5922 7.475C14.8522 7.475 15.1005 7.41 15.3372 7.28C15.5739 7.14667 15.7689 6.96333 15.9222 6.73V5.375H15.1622C14.5822 5.375 14.1722 5.475 13.9322 5.675C13.6955 5.875 13.5772 6.14333 13.5772 6.48C13.5772 6.80667 13.6605 7.055 13.8272 7.225C13.9972 7.39167 14.2522 7.475 14.5922 7.475ZM21.0433 0.614999V6.7C21.0433 6.96 21.1233 7.145 21.2833 7.255C21.4466 7.36167 21.6566 7.415 21.9133 7.415C22.0733 7.415 22.2249 7.39833 22.3683 7.365C22.5116 7.33167 22.6549 7.28667 22.7983 7.23L23.0233 7.845C22.8799 7.915 22.7016 7.97667 22.4883 8.03C22.2783 8.08667 22.0399 8.115 21.7733 8.115C21.3066 8.115 20.9283 7.98667 20.6383 7.73C20.3483 7.47 20.2033 7.11167 20.2033 6.655V1.28H18.5883V0.614999H21.0433ZM27.0394 0.614999V6.7C27.0394 6.96 27.1194 7.145 27.2794 7.255C27.4427 7.36167 27.6527 7.415 27.9094 7.415C28.0694 7.415 28.221 7.39833 28.3644 7.365C28.5077 7.33167 28.651 7.28667 28.7944 7.23L29.0194 7.845C28.876 7.915 28.6977 7.97667 28.4844 8.03C28.2744 8.08667 28.036 8.115 27.7694 8.115C27.3027 8.115 26.9244 7.98667 26.6344 7.73C26.3444 7.47 26.1994 7.11167 26.1994 6.655V1.28H24.5844V0.614999H27.0394Z" fill="#F5B1CC"/>
<path d="M7.62 14.65V26H4.34V14.65H0.45V12.14H11.67L11.33 14.65H7.62ZM23.5422 19.06C23.5422 20.5267 23.3322 21.8067 22.9122 22.9C22.4922 23.9867 21.8689 24.8333 21.0422 25.44C20.2222 26.04 19.2055 26.34 17.9922 26.34C16.7855 26.34 15.7689 26.0467 14.9422 25.46C14.1155 24.8667 13.4922 24.0267 13.0722 22.94C12.6522 21.8533 12.4422 20.56 12.4422 19.06C12.4422 17.5933 12.6522 16.3167 13.0722 15.23C13.4922 14.1433 14.1155 13.3 14.9422 12.7C15.7689 12.0933 16.7855 11.79 17.9922 11.79C19.2055 11.79 20.2222 12.0833 21.0422 12.67C21.8689 13.2567 22.4922 14.0933 22.9122 15.18C23.3322 16.2667 23.5422 17.56 23.5422 19.06ZM20.1822 19.06C20.1822 17.3533 20.0122 16.1133 19.6722 15.34C19.3322 14.5667 18.7722 14.18 17.9922 14.18C17.2122 14.18 16.6522 14.57 16.3122 15.35C15.9722 16.1233 15.8022 17.36 15.8022 19.06C15.8022 20.7667 15.9755 22.0067 16.3222 22.78C16.6689 23.5533 17.2255 23.94 17.9922 23.94C18.7922 23.94 19.3555 23.55 19.6822 22.77C20.0155 21.9833 20.1822 20.7467 20.1822 19.06ZM44.0666 19C44.0666 18.0667 43.9866 17.3067 43.8266 16.72C43.6732 16.1333 43.4566 15.68 43.1766 15.36C42.9032 15.04 42.5799 14.82 42.2066 14.7C41.8332 14.58 41.4299 14.52 40.9966 14.52H40.2966V23.63H40.9966C41.4499 23.63 41.8632 23.56 42.2366 23.42C42.6166 23.2733 42.9432 23.03 43.2166 22.69C43.4899 22.3433 43.6999 21.87 43.8466 21.27C43.9932 20.67 44.0666 19.9133 44.0666 19ZM47.4666 19C47.4666 20.1267 47.3466 21.0933 47.1066 21.9C46.8666 22.7 46.5299 23.3667 46.0966 23.9C45.6699 24.4333 45.1732 24.8533 44.6066 25.16C44.0399 25.4667 43.4299 25.6833 42.7766 25.81C42.1232 25.9367 41.4499 26 40.7566 26H37.0166V12.14H40.5166C41.4032 12.14 42.2599 12.2333 43.0866 12.42C43.9199 12.6 44.6632 12.9367 45.3166 13.43C45.9766 13.9167 46.4999 14.61 46.8866 15.51C47.2732 16.4033 47.4666 17.5667 47.4666 19ZM59.5188 19.06C59.5188 20.5267 59.3088 21.8067 58.8888 22.9C58.4688 23.9867 57.8454 24.8333 57.0188 25.44C56.1988 26.04 55.1821 26.34 53.9688 26.34C52.7621 26.34 51.7454 26.0467 50.9188 25.46C50.0921 24.8667 49.4688 24.0267 49.0488 22.94C48.6288 21.8533 48.4188 20.56 48.4188 19.06C48.4188 17.5933 48.6288 16.3167 49.0488 15.23C49.4688 14.1433 50.0921 13.3 50.9188 12.7C51.7454 12.0933 52.7621 11.79 53.9688 11.79C55.1821 11.79 56.1988 12.0833 57.0188 12.67C57.8454 13.2567 58.4688 14.0933 58.8888 15.18C59.3088 16.2667 59.5188 17.56 59.5188 19.06ZM56.1588 19.06C56.1588 17.3533 55.9888 16.1133 55.6488 15.34C55.3088 14.5667 54.7488 14.18 53.9688 14.18C53.1888 14.18 52.6288 14.57 52.2888 15.35C51.9488 16.1233 51.7788 17.36 51.7788 19.06C51.7788 20.7667 51.9521 22.0067 52.2988 22.78C52.6454 23.5533 53.2021 23.94 53.9688 23.94C54.7688 23.94 55.3321 23.55 55.6588 22.77C55.9921 21.9833 56.1588 20.7467 56.1588 19.06ZM63.7309 24.11C63.7309 23.7033 63.8309 23.3333 64.0309 23C64.2309 22.66 64.5009 22.39 64.8409 22.19C65.1809 21.9833 65.5543 21.88 65.9609 21.88C66.3743 21.88 66.7476 21.9833 67.0809 22.19C67.4209 22.39 67.6909 22.66 67.8909 23C68.0909 23.3333 68.1909 23.7033 68.1909 24.11C68.1909 24.51 68.0909 24.88 67.8909 25.22C67.6909 25.56 67.4209 25.83 67.0809 26.03C66.7476 26.2367 66.3743 26.34 65.9609 26.34C65.5543 26.34 65.1809 26.2367 64.8409 26.03C64.5009 25.83 64.2309 25.56 64.0309 25.22C63.8309 24.88 63.7309 24.51 63.7309 24.11Z" fill="#4BC4AD"/>
</svg>
